<?xml version="1.0" encoding="UTF-8"?>
<svg xmlns="http://www.w3.org/2000/svg" xmlns:xlink="http://www.w3.org/1999/xlink" width="24px" height="24px" viewBox="0 0 24 24" version="1.1">
<g id="surface1">
<path style=" stroke:none;fill-rule:evenodd;fill:rgb(100%,100%,100%);fill-opacity:1;" d="M 14.648438 5.886719 C 15.269531 5.113281 15.691406 4.066406 15.574219 3 C 14.683594 3.035156 13.570312 3.621094 12.917969 4.371094 C 12.351562 5.039062 11.847656 6.121094 11.976562 7.152344 C 12.980469 7.222656 14.011719 6.644531 14.648438 5.886719 Z M 16.910156 12.574219 C 16.894531 10.300781 18.773438 9.191406 18.863281 9.140625 C 17.792969 7.589844 16.144531 7.378906 15.558594 7.355469 C 14.167969 7.214844 12.824219 8.191406 12.117188 8.191406 C 11.394531 8.191406 10.308594 7.371094 9.136719 7.394531 C 7.621094 7.417969 6.207031 8.292969 5.433594 9.652344 C 3.839844 12.421875 5.027344 16.488281 6.558594 18.722656 C 7.324219 19.824219 8.222656 21.046875 9.394531 21 C 10.542969 20.953125 10.96875 20.269531 12.351562 20.269531 C 13.730469 20.269531 14.128906 21 15.324219 20.976562 C 16.558594 20.953125 17.332031 19.875 18.070312 18.769531 C 18.957031 17.507812 19.3125 16.269531 19.324219 16.207031 C 19.300781 16.199219 16.941406 15.300781 16.910156 12.574219 Z M 16.910156 12.574219 "/>
</g>
</svg>
